<?xml version="1.0" encoding="iso-8859-1"?>
<!-- Generator: Adobe Illustrator 18.1.1, SVG Export Plug-In . SVG Version: 6.00 Build 0)  -->
<svg version="1.1" id="Capa_1" xmlns="http://www.w3.org/2000/svg" xmlns:xlink="http://www.w3.org/1999/xlink" x="0px" y="0px"
	 viewBox="0 0 251.724 251.724" style="enable-background:new 0 0 251.724 251.724;" xml:space="preserve">
<g>
	<g>
		<path style="fill:#010002;" d="M249.355,0H2.369v242.774h51.536v8.95h29.763v-8.95h84.389v8.95h29.763v-8.95h51.53V0H249.355z
			 M237.422,230.84H14.303V11.934h223.119C237.422,11.934,237.422,230.84,237.422,230.84z"/>
		<path style="fill:#010002;" d="M47.938,198.023h155.849V44.752H47.938v11.558h-8.914v14.917h8.914v98.203h-8.914v14.917h8.914
			V198.023z M59.872,56.685h131.981v129.404H59.872V56.685z"/>
		<path style="fill:#010002;" d="M161.977,78.566L149.56,90.983c-6.552-5.114-14.762-8.198-23.694-8.198
			c-8.622,0-16.564,2.876-22.996,7.673L90.106,77.695l-8.437,8.437l12.835,12.835c-4.535,6.325-7.232,14.052-7.232,22.412
			c0,8.491,2.792,16.325,7.453,22.704l-13.921,13.921l8.437,8.437l13.921-13.921c6.379,4.666,14.213,7.453,22.704,7.453
			c7.912,0,15.275-2.405,21.409-6.504l13.843,13.843l8.437-8.437l-13.503-13.503c5.251-6.593,8.419-14.923,8.419-23.987
			c0-8.049-2.482-15.526-6.713-21.713l12.668-12.668L161.977,78.566z M99.199,121.39c0-14.702,11.958-26.666,26.66-26.666
			s26.666,11.964,26.666,26.666s-11.964,26.66-26.666,26.66S99.199,136.092,99.199,121.39z"/>
	</g>
</g>
<g>
</g>
<g>
</g>
<g>
</g>
<g>
</g>
<g>
</g>
<g>
</g>
<g>
</g>
<g>
</g>
<g>
</g>
<g>
</g>
<g>
</g>
<g>
</g>
<g>
</g>
<g>
</g>
<g>
</g>
</svg>
